<?xml version="1.0" encoding="UTF-8" standalone="no"?>
<!-- Created with Inkscape (http://www.inkscape.org/) -->
<svg
   xmlns:dc="http://purl.org/dc/elements/1.1/"
   xmlns:cc="http://web.resource.org/cc/"
   xmlns:rdf="http://www.w3.org/1999/02/22-rdf-syntax-ns#"
   xmlns:svg="http://www.w3.org/2000/svg"
   xmlns="http://www.w3.org/2000/svg"
   xmlns:xlink="http://www.w3.org/1999/xlink"
   xmlns:sodipodi="http://sodipodi.sourceforge.net/DTD/sodipodi-0.dtd"
   xmlns:inkscape="http://www.inkscape.org/namespaces/inkscape"
   width="744.09448819"
   height="1052.3622047"
   id="svg2"
   sodipodi:version="0.32"
   inkscape:version="0.45.1"
   sodipodi:docbase="/home/msporny/work/fuzzbot/firefox/extension/chrome/fuzzbot/content"
   sodipodi:docname="fuzzbot-online.svg"
   inkscape:output_extension="org.inkscape.output.svg.inkscape"
   inkscape:export-filename="/home/msporny/work/fuzzbot/firefox/extension/chrome/fuzzbot/content/fuzzbot16-online.png"
   inkscape:export-xdpi="1.7132961"
   inkscape:export-ydpi="1.7132961">
  <defs
     id="defs4">
    <linearGradient
       id="linearGradient8358">
      <stop
         style="stop-color:#d3d3d5;stop-opacity:1;"
         offset="0"
         id="stop8360" />
      <stop
         id="stop8366"
         offset="0.5"
         style="stop-color:#37373a;stop-opacity:1;" />
      <stop
         style="stop-color:#898889;stop-opacity:1;"
         offset="1"
         id="stop8362" />
    </linearGradient>
    <linearGradient
       id="linearGradient4154">
      <stop
         style="stop-color:#e2d8db;stop-opacity:1;"
         offset="0"
         id="stop4156" />
      <stop
         id="stop4168"
         offset="0.5"
         style="stop-color:#47413f;stop-opacity:0.49803922;" />
      <stop
         style="stop-color:#a5a6a6;stop-opacity:0;"
         offset="1"
         id="stop4158" />
    </linearGradient>
    <radialGradient
       inkscape:collect="always"
       xlink:href="#linearGradient8358"
       id="radialGradient8369"
       gradientUnits="userSpaceOnUse"
       gradientTransform="matrix(2.9672988,-2.6311557,2.0209381,2.2790848,720.61313,112.6384)"
       cx="-104.8162"
       cy="-59.719051"
       fx="-104.8162"
       fy="-59.719051"
       r="282.23076" />
    <radialGradient
       inkscape:collect="always"
       xlink:href="#linearGradient8358"
       id="radialGradient8391"
       cx="321.22955"
       cy="675.6994"
       fx="321.22955"
       fy="675.6994"
       r="282.23076"
       gradientTransform="matrix(3.3854797,-2.9056955,3.1327727,3.6494719,-2971.9935,-906.47296)"
       gradientUnits="userSpaceOnUse" />
  </defs>
  <sodipodi:namedview
     id="base"
     pagecolor="#ffffff"
     bordercolor="#666666"
     borderopacity="1.0"
     gridtolerance="10000"
     guidetolerance="10"
     objecttolerance="10"
     inkscape:pageopacity="0.0"
     inkscape:pageshadow="2"
     inkscape:zoom="0.49497475"
     inkscape:cx="366.75187"
     inkscape:cy="800.54874"
     inkscape:document-units="px"
     inkscape:current-layer="layer1"
     inkscape:window-width="1181"
     inkscape:window-height="930"
     inkscape:window-x="0"
     inkscape:window-y="28" />
  <metadata
     id="metadata7">
    <rdf:RDF>
      <cc:Work
         rdf:about="">
        <dc:format>image/svg+xml</dc:format>
        <dc:type
           rdf:resource="http://purl.org/dc/dcmitype/StillImage" />
      </cc:Work>
    </rdf:RDF>
  </metadata>
  <g
     inkscape:groupmode="layer"
     id="layer2"
     inkscape:label="eyes" />
  <g
     inkscape:groupmode="layer"
     id="layer5"
     inkscape:label="furcolor">
    <path
       style="fill:#c967e5;fill-opacity:1;fill-rule:evenodd;stroke:#000000;stroke-width:1px;stroke-linecap:butt;stroke-linejoin:miter;stroke-opacity:1"
       d="M 117.18157,419.70099 C 128.62415,429.78008 155.02845,431.82282 175.77042,431.82282 C 234.10035,431.82282 291.5531,435.86343 349.51666,435.86343 C 393.69572,435.86343 437.50891,447.98526 482.85679,447.98526 C 508.44732,447.98526 534.03785,447.98526 559.62839,447.98526 C 577.27238,447.98526 593.31668,445.96496 610.13601,445.96496 C 623.65511,445.96496 640.48268,438.4238 652.68497,435.37322 C 666.64991,431.88199 675.1826,433.64472 686.90761,427.78221 C 697.31965,422.57619 704.2991,422.42419 715.19188,419.70099 C 724.18701,417.45221 733.52656,417.71867 741.45584,419.70099 C 753.92655,422.81867 740.23961,444.21943 737.41523,447.98526 C 731.34072,456.08461 710.41805,460.84031 705.09035,466.16801 C 695.01702,476.24134 715.54503,480.31015 721.25279,480.31015 C 732.02775,480.31015 742.80271,480.31015 753.57767,480.31015 C 761.06734,480.31015 771.42778,484.2676 779.84164,486.37106 C 792.11132,489.43848 793.30916,497.14632 779.84164,500.5132 C 761.56683,505.0819 740.18248,502.5335 721.25279,502.5335 C 707.33051,502.5335 714.16718,514.62624 717.21218,520.71625 C 719.2756,524.84308 731.59123,529.92608 737.41523,532.83808 C 745.65261,536.95677 756.86735,540.9193 737.41523,540.9193 C 727.43233,540.9193 714.00735,534.26612 707.11066,530.81777 C 691.70297,523.11393 702.3694,536.17804 707.11066,540.9193 C 713.28325,547.09189 718.07031,549.85865 723.2731,555.06143 C 729.9458,561.73413 734.78314,562.53087 741.45584,569.20357 C 749.73042,577.47815 752.70422,579.5785 757.61828,589.40662 C 760.88941,595.94887 769.66932,600.4829 775.80103,603.54876 C 783.42088,607.35868 787.57976,615.32749 791.96347,619.7112 C 794.92517,622.67289 775.60879,612.54401 769.74011,609.60967 C 760.04744,604.76333 752.20647,598.13694 745.49645,591.42693 C 737.69547,583.62594 724.74628,577.01123 717.21218,573.24418 C 703.99363,566.6349 703.6993,576.52299 709.13096,587.38632 C 713.59169,596.30778 719.69893,602.77183 729.33401,607.58937 C 738.95789,612.4013 746.43103,621.58034 749.53706,627.79242 C 753.44672,635.61173 758.51465,641.70699 761.65889,647.99547 C 765.46337,655.60442 769.39006,659.94227 777.82133,664.15791 C 778.58467,664.53957 756.06106,654.64568 749.53706,652.03608 C 736.05146,646.64184 715.00815,643.95486 711.15127,643.95486 C 700.89381,643.95486 730.26099,651.48941 739.43554,656.07669 C 747.10228,659.91006 748.9221,671.00921 751.55737,676.27974 C 753.36591,679.89681 719.01728,672.6904 717.21218,672.23913 C 699.07172,667.70401 707.11066,672.55341 707.11066,686.38126 C 707.11066,691.76874 708.41731,697.31708 707.11066,702.5437 C 704.29111,713.82189 684.39076,696.48279 672.76547,696.48279 C 666.23081,696.48279 637.19463,730.23198 628.31876,736.88889 C 609.62627,750.90826 518.37738,785.37621 496.99893,785.37621 C 422.78681,785.37621 332.14651,796.42204 262.64354,773.25438 C 231.44995,762.85652 190.69034,753.92206 165.6689,738.9092 C 154.77659,732.37381 144.60005,721.88096 135.36432,712.64523 C 126.96136,704.24227 120.88968,695.81777 115.16127,684.36096 C 111.07437,676.18715 74.071336,690.78953 62.713829,695.78953 C 55.44583,698.98918 78.847598,660.1745 70.714551,676.27974 C 60.241791,697.01814 76.189721,659.26849 78.795771,654.05638 C 82.710981,646.22598 65.297543,654.22722 55.388954,658.34209 C 42.760506,663.58648 19.427515,671.39916 25.879162,670.01577 C 36.790182,667.67618 64.555694,623.23533 55.388954,625.52701 C 47.105914,627.59777 11.67761,650.82196 4.5941654,654.91425 C -7.1362758,661.69123 13.853401,637.10325 26.267841,627.79242 C 35.474441,620.88747 45.557091,610.52348 54.552111,601.52845 C 60.764491,595.31607 66.734611,583.28504 72.734861,577.28479 C 78.254331,571.76532 82.677761,560.15185 70.714551,563.14265 C 60.014861,565.81758 50.210231,577.43542 42.430281,581.3254 C 31.191321,586.94488 11.479341,597.93358 2.1257111,602.6104 C -1.5890586,604.46778 31.783301,573.78964 34.349061,571.22387 C 47.099241,558.4737 55.534441,545.99789 68.694251,532.83808 C 73.186621,528.34571 77.254901,522.83912 78.795771,516.67564 C 81.847071,504.47046 5.8257584,539.72229 -5.4268616,551.77716 C -14.731586,561.74526 70.736718,507.60548 76.775471,504.55381 C 86.061458,499.86116 54.565055,487.80865 48.491201,488.39137 C 33.521615,489.82754 4.3209254,503.10423 -8.2209229,494.59586 C -23.486128,484.23998 -5.7911165,469.71841 14.63622,469.71841 C 27.37318,469.71841 32.427081,471.19419 44.450591,468.18832 C 58.395161,464.70217 78.328801,470.83044 88.897301,468.18832 C 96.436831,466.30343 56.589731,428.46923 50.613031,423.9867 C 39.082991,415.33918 46.027251,403.53855 64.653641,403.53855 C 78.104461,403.53855 82.612531,415.66038 96.978521,415.66038 C 112.73347,415.66038 130.07276,425.13643 139.40493,429.80252"
       id="path4241"
       sodipodi:nodetypes="cssssssssssssssssssssssssssssssssssssssssssssssssssssssssssssssssssssssssssc" />
  </g>
  <g
     inkscape:groupmode="layer"
     id="layer4"
     inkscape:label="fur">
    <path
       style="fill:#000000;fill-opacity:1;fill-rule:nonzero;stroke:none;stroke-width:1px;stroke-linecap:butt;stroke-linejoin:miter;stroke-opacity:1"
       id="path4225"
       d="M 123.52681,440.06116 C 113.78505,437.53126 104.66165,433.13777 95.593003,428.85998 C 78.293658,419.66697 59.955197,413.0944 40.564644,410.33824 C 19.352572,410.3464 7.0060902,420.74784 40.975825,402.86111 C 48.247201,412.47029 60.424505,419.26154 70.363051,426.42045 C 84.791173,436.71618 99.515999,446.61997 112.15214,459.01797 C 90.521082,483.60217 81.694458,479.21939 53.643565,475.4226 C 29.664418,472.52359 6.3638982,476.44387 -15.725645,485.7836 C -18.198789,487.08134 -25.552667,491.09245 -23.145075,489.6768 C 45.76978,449.15538 -22.574476,489.44088 -4.5667399,481.99523 C 17.62122,481.56624 39.765703,482.65559 61.910836,483.88499 C 71.85095,484.60378 102.64923,484.70277 86.500121,500.44026 C 56.767121,519.43229 24.304166,533.17157 -6.3337998,550.5183 C 32.475879,534.12823 -19.497173,554.91554 13.03868,540.4376 C 36.801724,529.42519 59.761013,516.73093 83.811982,506.34398 C 110.97674,498.95544 78.347893,528.82096 72.742458,534.04196 C 48.767102,555.25405 25.581713,577.32232 4.5751327,601.49897 C -4.8524393,616.55685 -38.982299,632.07378 -4.6387557,606.22913 C 24.047994,587.22049 52.266926,561.18133 85.780027,551.22575 C 94.413306,568.22071 66.013659,590.24568 53.877201,603.2293 C 36.171092,622.18254 17.757863,640.57518 1.4641997,660.74914 C -48.484452,686.06147 5.1537064,652.42412 17.841753,644.22009 C 32.751273,637.32237 68.522357,602.71233 74.809753,623.93331 C 65.215888,637.86236 51.370441,648.19303 39.627482,660.25614 C 27.518623,671.72373 50.615329,656.60357 54.127354,654.84 C 68.108602,648.27164 82.626231,637.60934 96.846836,641.75451 C 94.384051,659.02537 81.551189,673.55655 72.187514,688.12227 C 72.3279,700.82443 35.56833,716.12933 51.5433,703.9186 C 72.840893,688.85253 94.47413,670.2798 120.78895,672.54363 C 128.92568,683.73101 122.75847,694.31363 117.28249,705.5067 C 105.03568,717.5145 79.127486,733.14474 92.620568,709.43325 C 93.707731,707.90734 94.794895,706.38144 95.882058,704.85553 L 122.6085,693.29188 C 121.51559,694.76278 120.42268,696.23368 119.32978,697.70459 C 113.815,706.96978 77.282855,733.86822 90.616788,717.32193 C 95.653793,708.4414 102.55237,698.70336 96.669552,689.05257 C 48.862364,689.03575 121.91489,672.62744 78.127835,693.28756 C 62.279688,705.92585 25.398698,729.85892 46.361243,699.45831 C 55.320574,685.81565 64.999672,672.42174 71.530673,657.39317 C 58.431835,659.67619 44.344258,665.09867 32.012503,672.5479 C 25.200906,676.02306 0.97421857,688.11395 13.105835,671.27637 C 24.622386,659.5521 37.58007,649.21343 48.051349,636.50302 C 31.010111,638.16529 66.880699,621.72985 43.512307,634.22597 C 21.830719,648.06772 -3.3379311,669.49461 -25.437729,672.33443 C -7.8152193,652.14288 11.190307,633.16177 29.395291,613.47486 C 40.764455,601.17413 59.988566,582.94503 62.883283,568.93077 C 86.409947,549.68827 39.351644,581.93954 20.82936,596.07268 C 9.283035,605.06006 -47.923466,645.70917 -20.959657,612.26161 C 0.51306176,588.3241 23.56424,565.929 47.463664,544.42069 C 50.390682,541.64512 82.341487,515.16105 61.736908,523.79365 C 37.574004,534.1207 14.563119,546.88933 -9.2101902,558.05636 C -46.718175,574.39925 2.3374457,536.46929 15.143476,533.17244 C 26.704646,526.767 99.479843,488.49436 59.601675,511.22895 C 76.095795,499.94784 47.848821,502.04385 39.52551,499.95128 C 16.809308,498.57291 -5.8827128,498.06427 -28.627836,499.03234 C -47.81266,487.21788 -7.1057092,476.07511 6.456122,468.33438 C 28.925331,459.77123 52.488076,456.50617 76.496799,459.24903 C 99.001587,461.8345 126.99675,456.09917 86.875219,474.08936 C 75.46296,461.07975 61.109684,451.2333 46.85184,441.39615 C 35.558953,433.68407 20.798238,427.16187 13.829916,415.25558 C 31.060159,403.59806 42.310859,390.94977 63.835814,393.99257 C 83.276637,397.49943 101.7163,404.36975 119.46131,413.01854 C 128.8468,417.0619 138.29541,421.09918 148.33472,423.22924 L 123.52681,440.06116 z " />
    <path
       style="fill:#000000;fill-opacity:1;fill-rule:nonzero;stroke:none;stroke-width:1px;stroke-linecap:butt;stroke-linejoin:miter;stroke-opacity:1"
       id="path4237"
       d="M 657.07121,453.52977 C 666.81297,450.99987 675.93637,446.60638 685.00501,442.32859 C 702.30436,433.13558 720.64282,426.56301 740.03338,423.80685 C 761.24545,423.81501 773.59193,434.21645 739.62219,416.32972 C 732.35081,425.9389 720.17351,432.73015 710.23496,439.88906 C 695.80684,450.18479 681.08202,460.08858 668.44588,472.48658 C 690.07693,497.07078 698.90356,492.688 726.95445,488.89121 C 750.9336,485.9922 774.23412,489.91248 796.32366,499.25221 C 798.79681,500.54995 806.15069,504.56106 803.74309,503.14541 C 734.82824,462.62399 803.1725,502.90949 785.16476,495.46384 C 762.9768,495.03485 740.83232,496.1242 718.68718,497.3536 C 708.74707,498.07239 677.94879,498.17138 694.09789,513.90887 C 723.83089,532.9009 756.29385,546.64018 786.93182,563.98691 C 748.12214,547.59684 800.09519,568.38415 767.55934,553.90621 C 743.7963,542.8938 720.837,530.19954 696.78603,519.81259 C 669.62128,512.42405 702.25012,542.28957 707.85556,547.51057 C 731.83091,568.72266 755.01631,590.79093 776.02289,614.96758 C 785.45046,630.02546 819.58032,645.54239 785.23678,619.69774 C 756.55003,600.6891 728.33109,574.64994 694.81799,564.69436 C 686.18471,581.68932 714.58436,603.71429 726.72081,616.69791 C 744.42693,635.65115 762.84016,654.04379 779.13382,674.21775 C 829.08247,699.53008 775.44431,665.89273 762.75627,657.6887 C 747.84675,650.79098 712.07566,616.18094 705.78826,637.40192 C 715.38213,651.33097 729.22757,661.66164 740.97054,673.72475 C 753.0794,685.19234 729.98269,670.07218 726.47066,668.30861 C 712.48941,661.74025 697.97178,651.07795 683.75118,655.22312 C 686.21396,672.49398 699.04683,687.02516 708.4105,701.59088 C 708.27012,714.29304 745.02969,729.59794 729.05472,717.38721 C 707.75712,702.32114 686.12389,683.74841 659.80907,686.01224 C 651.67234,697.19962 657.83955,707.78224 663.31553,718.97531 C 675.56234,730.98311 701.47053,746.61335 687.97745,722.90186 C 686.89028,721.37595 685.80312,719.85005 684.71596,718.32414 L 657.98952,706.76049 C 659.08243,708.23139 660.17534,709.70229 661.26824,711.1732 C 666.78302,720.43839 703.31516,747.33683 689.98123,730.79054 C 684.94422,721.91001 678.04565,712.17197 683.92846,702.52118 C 731.73565,702.50436 658.68313,686.09605 702.47018,706.75617 C 718.31833,719.39446 755.19932,743.32753 734.23677,712.92692 C 725.27744,699.28426 715.59834,685.89035 709.06734,670.86178 C 722.16618,673.1448 736.25376,678.56728 748.58552,686.01651 C 755.39711,689.49167 779.6238,701.58256 767.49218,684.74498 C 755.97563,673.02071 743.01795,662.68204 732.54667,649.97163 C 749.58791,651.6339 713.71732,635.19846 737.08571,647.69458 C 758.7673,661.53633 783.93595,682.96322 806.03575,685.80304 C 788.41324,665.61149 769.40771,646.63038 751.20273,626.94347 C 739.83356,614.64274 720.60945,596.41364 717.71473,582.39938 C 694.18807,563.15688 741.24638,595.40815 759.76866,609.54129 C 771.31498,618.52867 828.52149,659.17778 801.55768,625.73022 C 780.08496,601.79271 757.03378,579.39761 733.13435,557.8893 C 730.20733,555.11373 698.25653,528.62966 718.86111,537.26226 C 743.02402,547.58931 766.0349,560.35794 789.80821,571.52497 C 827.31619,587.86786 778.26057,549.9379 765.45454,546.64105 C 753.89337,540.23561 681.11817,501.96297 720.99634,524.69756 C 704.50222,513.41645 732.74919,515.51246 741.07251,513.41989 C 763.78871,512.04152 786.48073,511.53288 809.22586,512.50095 C 828.41068,500.68649 787.70373,489.54372 774.1419,481.80299 C 751.67269,473.23984 728.10994,469.97478 704.10122,472.71764 C 681.59643,475.30311 653.60127,469.56778 693.7228,487.55797 C 705.13506,474.54836 719.48833,464.70191 733.74618,454.86476 C 745.03907,447.15268 759.79978,440.63048 766.7681,428.72419 C 749.53786,417.06667 738.28716,404.41838 716.7622,407.46118 C 697.32138,410.96804 678.88172,417.83836 661.13671,426.48715 C 651.75122,430.53051 642.30261,434.56779 632.2633,436.69785 L 657.07121,453.52977 z " />
  </g>
  <g
     inkscape:label="Layer 1"
     inkscape:groupmode="layer"
     id="layer1">
    <path
       style="fill:url(#radialGradient8391);fill-opacity:1.0;fill-rule:evenodd;stroke:#000000;stroke-width:10;stroke-linecap:butt;stroke-linejoin:miter;stroke-miterlimit:4;stroke-dasharray:none;stroke-opacity:1"
       d="M 661.08872,720.09193 C 661.08872,709.9904 657.04811,697.86857 657.04811,697.86857 C 657.04811,697.86857 499.48203,768.57925 384.30692,768.57925 C 271.0977,768.57925 109.54543,673.62491 107.52512,685.74674 C 105.50482,697.86857 107.52512,714.03101 107.52512,714.03101 C 107.52512,714.03101 135.8094,970.60974 390.36784,970.60974 C 644.92628,970.60974 657.04811,718.07162 661.08872,720.09193 z "
       id="path7121"
       sodipodi:nodetypes="ccsscsc" />
    <path
       sodipodi:type="arc"
       style="fill:#f5f0ee;fill-opacity:1;fill-rule:evenodd;stroke:#000000;stroke-width:5;stroke-linecap:butt;stroke-linejoin:round;stroke-miterlimit:4;stroke-dasharray:none;stroke-dashoffset:0;stroke-opacity:1"
       id="path2192"
       sodipodi:cx="307.08636"
       sodipodi:cy="535.16406"
       sodipodi:rx="66.670067"
       sodipodi:ry="66.670067"
       d="M 373.75643 535.16406 A 66.670067 66.670067 0 1 1  240.4163,535.16406 A 66.670067 66.670067 0 1 1  373.75643 535.16406 z"
       transform="translate(-39.395946,5.0685069)" />
    <path
       sodipodi:type="arc"
       style="fill:#000000;fill-opacity:1;fill-rule:evenodd;stroke:#000000;stroke-width:3;stroke-linecap:butt;stroke-linejoin:round;stroke-miterlimit:4;stroke-dasharray:none;stroke-dashoffset:0;stroke-opacity:1"
       id="path3167"
       sodipodi:cx="292.94424"
       sodipodi:cy="543.2453"
       sodipodi:rx="10.101525"
       sodipodi:ry="10.101525"
       d="M 303.04577 543.2453 A 10.101525 10.101525 0 1 1  282.84272,543.2453 A 10.101525 10.101525 0 1 1  303.04577 543.2453 z"
       transform="translate(-13.131981,3.0482026)" />
    <path
       sodipodi:type="arc"
       style="fill:#f5f0ee;fill-opacity:1;fill-rule:evenodd;stroke:#000000;stroke-width:5;stroke-linecap:butt;stroke-linejoin:round;stroke-miterlimit:4;stroke-dasharray:none;stroke-dashoffset:0;stroke-opacity:1"
       id="path4150"
       sodipodi:cx="307.08636"
       sodipodi:cy="535.16406"
       sodipodi:rx="66.670067"
       sodipodi:ry="66.670067"
       d="M 373.75643 535.16406 A 66.670067 66.670067 0 1 1  240.4163,535.16406 A 66.670067 66.670067 0 1 1  373.75643 535.16406 z"
       transform="translate(172.73609,5.0685369)" />
    <path
       sodipodi:type="arc"
       style="fill:#000000;fill-opacity:1;fill-rule:evenodd;stroke:#000000;stroke-width:3;stroke-linecap:butt;stroke-linejoin:round;stroke-miterlimit:4;stroke-dasharray:none;stroke-dashoffset:0;stroke-opacity:1"
       id="path4152"
       sodipodi:cx="292.94424"
       sodipodi:cy="543.2453"
       sodipodi:rx="10.101525"
       sodipodi:ry="10.101525"
       d="M 303.04577 543.2453 A 10.101525 10.101525 0 1 1  282.84272,543.2453 A 10.101525 10.101525 0 1 1  303.04577 543.2453 z"
       transform="translate(172.7361,3.0482323)" />
    <path
       style="fill:#fafff4;fill-opacity:1;fill-rule:evenodd;stroke:#000000;stroke-width:4;stroke-linecap:butt;stroke-linejoin:miter;stroke-opacity:1;stroke-miterlimit:4;stroke-dasharray:none"
       d="M 290.92393,719.01184 C 290.92393,719.01184 478.8123,793.76314 545.48237,702.84941 C 612.15244,611.93568 525.27932,698.80879 391.93919,686.68696 C 258.59905,674.56513 222.23356,613.95598 226.27417,656.38239 C 230.31478,698.80879 290.92393,721.03215 290.92393,719.01184 z "
       id="path5226"
       sodipodi:nodetypes="csssc" />
  </g>
  <g
     inkscape:groupmode="layer"
     id="layer3"
     inkscape:label="tophat">
    <path
       style="fill:url(#radialGradient8369);fill-opacity:1.0;fill-rule:evenodd;stroke:#000000;stroke-width:10;stroke-linecap:butt;stroke-linejoin:miter;stroke-miterlimit:4;stroke-dasharray:none;stroke-opacity:1"
       d="M 112.68812,390.64234 C 112.68812,400.74387 116.72873,412.8657 116.72873,412.8657 C 116.72873,412.8657 266.23131,497.71851 379.36839,493.6779 C 492.50548,489.63729 664.23141,437.10936 666.25172,424.98753 C 668.27202,412.8657 666.25172,396.70326 666.25172,396.70326 C 666.25172,396.70326 637.96744,140.12451 383.409,140.12451 C 128.85056,140.12451 116.72873,392.66265 112.68812,390.64234 z "
       id="path4212" />
  </g>
</svg>
